<?xml version="1.0" encoding="UTF-8"?>
<svg xmlns="http://www.w3.org/2000/svg" xmlns:xlink="http://www.w3.org/1999/xlink" width="331.113647pt" height="296.002533pt" viewBox="0 0 331.113647 296.002533" version="1.1">
<g id="surface1">
<path style=" stroke:none;fill-rule:nonzero;fill:rgb(19.999695%,19.607544%,19.999695%);fill-opacity:1;" d="M 248.585938 81.351562 C 244.601562 76.304688 239.023438 73.382812 232.113281 72.851562 C 230.785156 65.144531 228.128906 58.238281 224.40625 51.859375 C 239.285156 43.09375 241.144531 29.808594 241.144531 29.277344 C 241.410156 27.417969 240.082031 25.554688 238.222656 25.289062 C 219.890625 19.445312 199.433594 23.429688 193.851562 24.492188 C 190.398438 22.632812 180.570312 17.851562 165.425781 17.851562 C 150.542969 17.851562 140.449219 22.367188 136.996094 24.492188 C 131.414062 23.164062 111.222656 19.179688 92.890625 25.558594 C 91.03125 25.824219 89.699219 27.417969 89.964844 29.277344 C 89.964844 29.808594 92.09375 43.09375 106.703125 51.859375 C 102.984375 58.238281 100.328125 65.144531 99 72.851562 C 92.089844 73.382812 86.246094 76.304688 82.527344 81.351562 C 78.808594 86.402344 76.683594 93.308594 76.683594 101.8125 C 76.683594 138.742188 112.285156 193.210938 161.96875 195.601562 C 162.765625 195.601562 163.5625 195.601562 164.625 195.601562 C 164.890625 195.601562 165.160156 195.601562 165.425781 195.601562 C 165.691406 195.601562 165.957031 195.601562 166.222656 195.601562 C 167.019531 195.601562 167.816406 195.601562 168.878906 195.601562 C 218.828125 193.210938 254.433594 138.742188 254.433594 101.8125 C 254.433594 93.574219 252.304688 86.402344 248.585938 81.351562 M 220.421875 46.28125 C 219.09375 44.421875 217.765625 42.828125 216.171875 41.234375 C 220.953125 39.636719 226.269531 37.777344 231.582031 35.386719 C 229.457031 38.839844 226.003906 43.09375 220.421875 46.28125 M 129.289062 30.074219 C 133.804688 30.871094 136.726562 31.402344 136.726562 31.667969 C 137.792969 31.933594 138.589844 31.667969 139.386719 31.136719 C 139.386719 31.136719 148.949219 25.023438 165.421875 25.023438 C 181.628906 25.023438 191.195312 31.136719 191.460938 31.136719 C 192.257812 31.667969 193.320312 31.933594 194.117188 31.667969 C 194.117188 31.667969 197.042969 30.871094 201.558594 30.074219 C 207.933594 29.011719 217.5 28.214844 227.0625 29.808594 C 220.953125 32.199219 215.375 34.324219 210.058594 35.917969 C 207.402344 36.714844 204.746094 37.511719 202.355469 38.308594 C 202.089844 38.308594 202.089844 38.308594 201.824219 38.308594 C 185.878906 42.828125 172.863281 46.8125 165.421875 61.160156 C 157.984375 46.546875 144.964844 42.828125 129.023438 38.308594 C 128.757812 38.308594 128.757812 38.308594 128.492188 38.308594 C 126.101562 37.511719 123.445312 36.714844 120.785156 35.917969 C 115.472656 34.324219 109.890625 32.464844 103.78125 29.808594 C 113.347656 28.480469 122.914062 29.277344 129.289062 30.074219 M 99.53125 35.386719 C 104.84375 37.777344 110.160156 39.636719 114.941406 41.234375 C 113.347656 42.828125 112.019531 44.421875 110.691406 46.28125 C 104.847656 43.09375 101.65625 38.839844 99.53125 35.386719 M 122.382812 43.625 C 123.710938 44.15625 125.304688 44.421875 126.632812 44.953125 C 144.433594 50 156.390625 53.453125 161.96875 70.722656 C 158.25 72.320312 155.0625 76.039062 151.34375 80.023438 C 151.078125 80.289062 151.078125 80.289062 150.8125 80.554688 C 150.28125 70.722656 142.308594 63.019531 132.476562 63.019531 C 122.382812 63.019531 114.144531 71.257812 114.144531 81.351562 C 114.144531 91.449219 122.382812 99.683594 132.476562 99.683594 C 132.476562 99.683594 132.476562 99.683594 132.742188 99.683594 C 143.371094 99.683594 150.542969 91.183594 156.390625 84.539062 C 159.578125 80.820312 163.03125 76.835938 165.160156 76.835938 C 167.285156 76.835938 171.003906 80.820312 173.925781 84.539062 C 179.773438 91.183594 186.945312 99.683594 197.574219 99.683594 L 197.839844 99.683594 C 207.9375 99.683594 216.171875 91.449219 216.171875 81.351562 C 216.171875 71.257812 207.9375 63.019531 197.839844 63.019531 C 188.007812 63.019531 180.039062 70.726562 179.507812 80.554688 C 179.242188 80.289062 179.242188 80.289062 178.972656 80.023438 C 175.253906 75.773438 172.066406 72.050781 168.347656 70.722656 C 173.925781 53.453125 185.882812 50 203.683594 44.953125 C 205.011719 44.6875 206.605469 44.15625 207.9375 43.625 C 218.03125 53.1875 224.675781 66.207031 225.472656 81.085938 L 225.472656 81.351562 C 225.472656 97.292969 212.71875 110.3125 196.777344 110.3125 C 189.601562 110.3125 183.226562 108.453125 178.441406 105.265625 C 178.441406 104.46875 178.441406 103.9375 177.910156 103.40625 L 167.550781 86.667969 C 167.019531 85.601562 165.953125 85.070312 164.625 85.070312 C 163.5625 85.070312 162.234375 85.601562 161.703125 86.667969 L 151.34375 103.40625 C 151.078125 103.9375 150.808594 104.734375 150.808594 105.265625 C 146.027344 108.453125 139.652344 110.3125 132.476562 110.3125 C 116.800781 110.3125 103.78125 97.292969 103.78125 81.351562 L 103.78125 81.085938 C 105.910156 66.207031 112.285156 52.921875 122.382812 43.625 M 144.167969 81.351562 C 144.167969 87.730469 139.121094 92.777344 132.742188 92.777344 C 126.367188 92.777344 121.320312 87.730469 121.320312 81.351562 C 121.320312 74.976562 126.367188 69.925781 132.742188 69.925781 C 139.121094 69.925781 144.167969 74.976562 144.167969 81.351562 M 186.945312 81.351562 C 186.945312 74.976562 191.992188 69.925781 198.371094 69.925781 C 204.746094 69.925781 209.792969 74.976562 209.792969 81.351562 C 209.792969 87.730469 204.746094 92.777344 198.371094 92.777344 C 191.992188 92.777344 186.945312 87.730469 186.945312 81.351562 M 172.066406 105.53125 L 171.269531 107.65625 L 165.421875 123.863281 L 159.578125 107.65625 L 158.78125 105.53125 L 163.828125 97.027344 L 165.15625 94.636719 L 166.484375 96.761719 Z M 83.589844 101.8125 C 83.589844 94.902344 85.183594 89.324219 88.105469 85.601562 C 90.496094 82.414062 93.953125 80.554688 98.46875 80.023438 C 98.46875 81.617188 98.203125 83.210938 98.203125 84.808594 C 98.203125 117.753906 106.175781 152.027344 122.914062 173.550781 C 99 155.214844 83.589844 124.394531 83.589844 101.8125 M 105.640625 103.40625 C 110.957031 110.046875 118.394531 114.832031 126.898438 116.691406 C 127.429688 127.316406 130.882812 166.640625 145.230469 185.769531 C 122.382812 173.28125 109.097656 138.210938 105.640625 103.40625 M 165.425781 188.957031 C 142.042969 188.957031 134.605469 140.070312 133.539062 117.222656 C 141.511719 117.222656 148.421875 115.359375 154.265625 111.90625 L 162.5 132.898438 C 163.03125 134.226562 164.359375 137.414062 165.691406 137.414062 C 167.019531 137.414062 168.347656 134.226562 168.878906 132.898438 L 176.847656 111.90625 C 182.429688 115.359375 189.601562 117.222656 197.308594 117.222656 C 196.246094 140.070312 189.070312 188.957031 165.425781 188.957031 M 185.617188 185.503906 C 199.964844 166.109375 203.417969 127.050781 203.949219 116.425781 C 212.453125 114.828125 220.15625 110.046875 225.207031 103.140625 C 222.015625 138.210938 208.730469 173.28125 185.617188 185.503906 M 208.199219 173.546875 C 225.207031 151.761719 233.175781 117.488281 233.175781 84.539062 C 233.175781 82.945312 233.175781 81.351562 232.910156 79.757812 C 237.425781 80.289062 240.882812 82.148438 243.273438 85.335938 C 246.195312 89.058594 247.789062 94.636719 247.789062 101.542969 C 247.523438 124.394531 232.113281 155.214844 208.199219 173.546875 "/>
<path style=" stroke:none;fill-rule:nonzero;fill:rgb(19.999695%,19.607544%,19.999695%);fill-opacity:1;" d="M 125.039062 81.351562 C 125.039062 85.601562 128.492188 89.324219 133.007812 89.324219 C 137.261719 89.324219 140.980469 85.871094 140.980469 81.351562 C 140.980469 77.101562 137.527344 73.382812 133.007812 73.382812 C 128.492188 73.648438 125.039062 77.101562 125.039062 81.351562 M 137.792969 80.023438 C 137.792969 82.148438 135.933594 84.007812 133.804688 84.007812 C 131.679688 84.007812 129.820312 82.148438 129.820312 80.023438 C 129.820312 77.898438 131.679688 76.039062 133.804688 76.039062 C 136.199219 76.304688 137.792969 77.898438 137.792969 80.023438 "/>
<path style=" stroke:none;fill-rule:nonzero;fill:rgb(19.999695%,19.607544%,19.999695%);fill-opacity:1;" d="M 190.664062 81.351562 C 190.664062 85.601562 194.117188 89.324219 198.636719 89.324219 C 202.886719 89.324219 206.605469 85.871094 206.605469 81.351562 C 206.605469 77.101562 203.152344 73.382812 198.636719 73.382812 C 194.117188 73.648438 190.664062 77.101562 190.664062 81.351562 M 203.417969 80.023438 C 203.417969 82.148438 201.558594 84.007812 199.433594 84.007812 C 197.308594 84.007812 195.449219 82.148438 195.449219 80.023438 C 195.449219 77.898438 197.308594 76.039062 199.433594 76.039062 C 201.824219 76.304688 203.417969 77.898438 203.417969 80.023438 "/>
<path style=" stroke:none;fill-rule:nonzero;fill:rgb(19.999695%,19.607544%,19.999695%);fill-opacity:1;" d="M 22.460938 270.691406 L 15.558594 270.691406 L 15.558594 231.402344 L 40.246094 231.402344 L 40.246094 237.507812 L 22.460938 237.507812 L 22.460938 247.332031 L 39.183594 247.332031 L 39.183594 253.4375 L 22.460938 253.4375 Z M 22.460938 270.691406 "/>
<path style=" stroke:none;fill-rule:nonzero;fill:rgb(19.999695%,19.607544%,19.999695%);fill-opacity:1;" d="M 71.839844 253.4375 L 54.316406 253.4375 L 54.316406 270.691406 L 47.148438 270.691406 L 47.148438 231.402344 L 54.316406 231.402344 L 54.316406 247.332031 L 71.839844 247.332031 L 71.839844 231.402344 L 78.742188 231.402344 L 78.742188 270.691406 L 71.839844 270.691406 Z M 71.839844 253.4375 "/>
<path style=" stroke:none;fill-rule:nonzero;fill:rgb(19.999695%,19.607544%,19.999695%);fill-opacity:1;" d="M 118.566406 241.488281 C 116.441406 238.835938 112.722656 236.710938 108.476562 236.710938 C 103.964844 236.710938 101.308594 238.835938 101.308594 242.019531 C 101.308594 244.941406 103.167969 246.003906 107.679688 247.066406 L 112.460938 248.128906 C 119.894531 249.71875 125.203125 252.109375 125.203125 259.277344 C 125.203125 266.445312 119.363281 271.488281 109.539062 271.488281 C 101.042969 271.488281 95.203125 267.242188 92.546875 263.527344 L 98.390625 259.277344 C 100.246094 262.199219 104.496094 265.382812 110.070312 265.382812 C 115.378906 265.382812 118.035156 263.261719 118.035156 260.074219 C 118.035156 256.886719 115.378906 255.824219 111.398438 255.03125 L 106.085938 253.96875 C 99.714844 252.640625 94.40625 249.984375 94.40625 242.816406 C 94.40625 235.914062 101.042969 231.136719 109.273438 231.136719 C 117.503906 231.136719 122.28125 235.117188 124.40625 237.773438 Z M 118.566406 241.488281 "/>
<path style=" stroke:none;fill-rule:nonzero;fill:rgb(19.999695%,19.607544%,19.999695%);fill-opacity:1;" d="M 147.238281 260.871094 L 147.238281 257.417969 C 146.175781 257.683594 145.378906 257.949219 143.519531 258.480469 L 140.867188 259.011719 C 137.679688 259.542969 136.351562 260.339844 136.351562 262.730469 C 136.351562 264.851562 137.945312 266.445312 141.132812 266.445312 C 144.847656 266.445312 147.238281 264.585938 147.238281 260.871094 M 153.609375 264.320312 C 153.609375 266.179688 153.875 266.710938 155.46875 266.710938 L 155.734375 266.710938 L 155.734375 270.957031 C 155.46875 270.957031 154.40625 271.222656 152.546875 271.222656 C 149.894531 271.222656 148.300781 270.425781 147.769531 268.304688 C 146.707031 269.632812 144.582031 271.222656 139.539062 271.222656 C 134.230469 271.222656 129.714844 268.570312 129.714844 262.464844 C 129.714844 260.339844 130.246094 258.746094 131.308594 257.683594 C 132.902344 255.558594 135.824219 254.5 139.539062 253.96875 L 145.644531 252.90625 C 146.972656 252.90625 147.238281 252.640625 147.238281 251.578125 L 147.238281 251.3125 C 147.238281 248.921875 145.644531 247.859375 142.460938 247.859375 C 138.742188 247.859375 136.882812 249.453125 136.882812 252.640625 L 130.777344 252.109375 C 130.777344 245.472656 136.085938 242.550781 142.722656 242.550781 C 149.097656 242.550781 153.609375 244.675781 153.609375 250.515625 Z M 153.609375 264.320312 "/>
<path style=" stroke:none;fill-rule:nonzero;fill:rgb(19.999695%,19.607544%,19.999695%);fill-opacity:1;" d="M 162.371094 231.402344 L 169.007812 231.402344 L 169.007812 270.691406 L 162.371094 270.691406 Z M 162.371094 231.402344 "/>
<path style=" stroke:none;fill-rule:nonzero;fill:rgb(19.999695%,19.607544%,19.999695%);fill-opacity:1;" d="M 175.644531 270.691406 L 175.644531 265.648438 L 190.511719 248.921875 L 176.175781 248.921875 L 176.175781 243.347656 L 199.007812 243.347656 L 199.007812 248.394531 L 184.40625 264.851562 L 199.007812 264.851562 L 199.007812 270.691406 Z M 175.644531 270.691406 "/>
<path style=" stroke:none;fill-rule:nonzero;fill:rgb(19.999695%,19.607544%,19.999695%);fill-opacity:1;" d="M 219.449219 265.648438 C 223.699219 265.648438 226.351562 262.460938 226.351562 256.886719 C 226.351562 251.3125 223.699219 248.128906 219.449219 248.128906 C 215.203125 248.128906 212.546875 251.578125 212.546875 256.886719 C 212.546875 262.199219 215.203125 265.648438 219.449219 265.648438 M 212.8125 267.773438 L 212.8125 270.691406 L 206.175781 270.691406 L 206.175781 231.402344 L 212.8125 231.402344 L 212.8125 246.269531 C 214.40625 244.410156 217.328125 242.550781 220.777344 242.550781 C 228.210938 242.550781 232.988281 248.660156 232.988281 257.152344 C 232.988281 265.382812 228.210938 271.488281 220.777344 271.488281 C 217.0625 271.222656 214.40625 269.898438 212.8125 267.773438 "/>
<path style=" stroke:none;fill-rule:nonzero;fill:rgb(19.999695%,19.607544%,19.999695%);fill-opacity:1;" d="M 238.300781 243.082031 L 244.9375 243.082031 L 244.9375 257.683594 C 244.9375 259.542969 244.9375 261.667969 245.734375 262.996094 C 246.265625 264.320312 247.59375 265.382812 249.980469 265.382812 C 253.964844 265.382812 255.824219 262.199219 255.824219 257.683594 L 255.824219 243.082031 L 262.460938 243.082031 L 262.460938 270.425781 L 255.824219 270.425781 L 255.824219 267.242188 C 254.496094 269.632812 251.574219 271.488281 247.59375 271.488281 C 244.9375 271.488281 242.546875 270.691406 240.957031 268.835938 C 239.097656 266.976562 238.566406 264.851562 238.566406 259.011719 L 238.566406 243.082031 Z M 238.300781 243.082031 "/>
<path style=" stroke:none;fill-rule:nonzero;fill:rgb(19.999695%,19.607544%,19.999695%);fill-opacity:1;" d="M 276.53125 243.082031 L 276.53125 247.066406 C 277.0625 245.738281 279.1875 242.285156 284.496094 242.285156 C 284.761719 242.285156 285.027344 242.285156 285.558594 242.285156 L 285.558594 248.921875 C 285.027344 248.921875 284.230469 248.921875 283.699219 248.921875 C 280.246094 248.921875 278.121094 250.25 277.328125 252.640625 C 276.796875 253.96875 276.53125 255.5625 276.53125 257.949219 L 276.53125 270.429688 L 269.890625 270.429688 L 269.890625 243.082031 Z M 276.53125 243.082031 "/>
<path style=" stroke:none;fill-rule:nonzero;fill:rgb(19.999695%,19.607544%,19.999695%);fill-opacity:1;" d="M 302.28125 248.128906 C 297.769531 248.128906 295.378906 251.3125 295.378906 256.621094 C 295.378906 262.199219 298.035156 265.117188 302.28125 265.117188 C 306.796875 265.117188 309.1875 261.933594 309.1875 256.621094 C 309.183594 251.3125 306.796875 248.128906 302.28125 248.128906 M 296.175781 272.019531 C 296.441406 274.675781 297.503906 277.066406 302.28125 277.066406 C 307.328125 277.066406 308.921875 274.941406 308.921875 269.898438 L 308.921875 267.242188 C 308.125 268.570312 305.734375 270.691406 300.957031 270.691406 C 293.523438 270.691406 288.742188 265.382812 288.742188 256.886719 C 288.742188 248.128906 293.257812 242.285156 300.691406 242.285156 C 304.40625 242.285156 307.328125 244.144531 308.921875 246.003906 L 308.921875 243.082031 L 315.558594 243.082031 L 315.558594 269.101562 C 315.558594 272.019531 315.292969 273.878906 314.761719 275.738281 C 312.902344 280.25 308.917969 282.109375 302.015625 282.109375 C 293.789062 282.109375 289.804688 278.394531 289.539062 272.550781 Z M 296.175781 272.019531 "/>
</g>
</svg>
